<svg xmlns="http://www.w3.org/2000/svg" viewBox="0 0 60 30">
  <path fill="#0046ae" d="M0 0h20v30H0z"/>
  <path fill="#ffd200" d="M20 0h20v30H20z"/>
  <path fill="#cc092f" d="M40 0h20v30H40z"/>
  <g transform="translate(30 15)">
    <path fill="#8b5a2b" d="M0-9.6c-2 2.8-5.1 4-8.8 4.4 1.8 1.5 4.2 2.2 6.9 2.1l-2.8 4.5 4.7-1.8 4.7 1.8-2.8-4.5c2.7.1 5.1-.6 6.9-2.1C5.1-5.6 2-6.8 0-9.6z"/>
    <path fill="#8b5a2b" d="M-1.7-8.2h3.4v11h-3.4z"/>
    <path fill="#ffd200" d="M0-12.5 1.1-8.9h3.8L1.8-6.7 3-3.1 0-5.4-3-3.1l1.2-3.6-3.1-2.2h3.8z"/>
    <path fill="#ffd200" d="M-6.8 1.2C-5.7 6.7-3.1 10.2 0 11.5 3.1 10.2 5.7 6.7 6.8 1.2 4.1 2.2 1.9 2 0 .6-1.9 2-4.1 2.2-6.8 1.2z"/>
    <path fill="#0046ae" d="M-4.2 3h8.4c-.8 3.2-2.2 5.3-4.2 6.4C-2 8.3-3.4 6.2-4.2 3z"/>
    <path fill="#cc092f" d="M-3.1 5.1h6.2v1.7h-6.2z"/>
    <path fill="#ffd200" d="M0-1.9 1.2.1h2.3L1.7 1.4l.7 2.1L0 2.2l-2.4 1.3.7-2.1L-3.5.1h2.3z"/>
    <path fill="#ffd200" d="M-9.6-.4c1.5-1.3 2.8-1.7 4-1.2-1.1 1.7-2.4 2.1-4 1.2zM9.6-.4c-1.5-1.3-2.8-1.7-4-1.2 1.1 1.7 2.4 2.1 4 1.2z"/>
    <path fill="#007a50" d="M-9.5 4.3c2.6-.2 4.7.5 6.4 2.1-2.8.6-5-.1-6.4-2.1z"/>
    <path fill="#b07e5b" d="M9-6.5h1.5v7H9z"/>
    <path fill="#ffd200" d="M8.2-7.2h3v1.2h-3z"/>
  </g>
</svg>
