<svg xmlns="http://www.w3.org/2000/svg" viewBox="0 0 3 2">
  <path fill="#fff" d="M0 0h3v2H0z"/>
  <path fill="#0b4ea2" d="M0 .667h3v1.333H0z"/>
  <path fill="#ee1c25" d="M0 1.333h3V2H0z"/>
  <path fill="#fff" d="M.62 .42h.76v.88c0 .42-.38.62-.38.62s-.38-.2-.38-.62z"/>
  <path fill="#ee1c25" d="M.7 .5h.6v.78c0 .28-.3.45-.3.45s-.3-.17-.3-.45z"/>
  <path fill="#fff" d="M.82 .72h.36v.08H.82zm.14-.16h.08v.58H.96zM.8 .95h.4v.08H.8z"/>
  <path fill="#0b4ea2" d="M.72 1.23c.17-.1.39-.1.56 0-.07.28-.28.43-.28.43s-.21-.15-.28-.43z"/>
</svg>
